<?xml version="1.0" standalone="no"?>
<!DOCTYPE svg PUBLIC "-//W3C//DTD SVG 20010904//EN"
 "http://www.w3.org/TR/2001/REC-SVG-20010904/DTD/svg10.dtd">
<svg version="1.0" xmlns="http://www.w3.org/2000/svg"
 width="512.000000pt" height="512.000000pt" viewBox="0 0 512.000000 512.000000"
 preserveAspectRatio="xMidYMid meet">

<g transform="translate(0.000000,512.000000) scale(0.100000,-0.100000)"
fill="#000000" stroke="none">
<path d="M4790 5060 c-936 -123 -1407 -273 -1850 -590 -201 -143 -479 -409
-709 -676 l-94 -109 -79 9 c-103 13 -245 -1 -633 -58 -353 -53 -628 -106 -704
-135 -134 -53 -247 -163 -379 -365 -47 -72 -118 -180 -157 -241 -40 -60 -91
-145 -114 -187 -38 -70 -42 -82 -35 -123 7 -47 25 -75 49 -75 7 0 90 11 183
25 279 40 610 75 727 76 61 0 149 4 198 7 48 4 87 6 87 5 0 -2 -16 -25 -36
-53 -40 -56 -41 -84 -4 -88 38 -4 224 203 629 698 356 436 504 605 715 815
111 111 251 240 311 288 225 180 465 322 696 411 103 40 288 96 314 96 6 0 11
-39 12 -93 9 -415 390 -810 815 -844 91 -7 89 14 21 -193 -130 -394 -355 -735
-737 -1115 -189 -189 -330 -312 -731 -639 -307 -251 -495 -409 -643 -545 -56
-51 -104 -92 -105 -90 -2 2 -15 43 -30 91 -97 306 -319 609 -595 813 -204 151
-528 275 -719 275 -40 0 -44 -2 -41 -22 3 -25 -1 -23 168 -68 146 -39 149 -41
121 -71 -73 -78 -80 -183 -21 -303 38 -75 165 -239 275 -355 188 -198 409
-284 615 -240 28 6 53 9 55 7 2 -2 15 -57 29 -122 27 -126 49 -166 91 -166 24
0 65 38 65 61 0 8 16 24 35 37 l35 22 0 -34 c0 -183 -47 -708 -86 -953 -13
-86 -24 -160 -24 -164 0 -19 34 -38 77 -44 44 -6 55 -3 130 39 45 25 131 78
192 118 60 40 163 107 228 148 153 97 296 235 341 330 52 108 91 293 161 770
56 383 63 441 60 554 l-3 99 80 70 c439 385 668 637 833 915 197 331 328 725
416 1252 23 137 95 678 95 714 0 28 -30 46 -73 45 -23 -1 -139 -14 -257 -29z
m205 -127 c-3 -21 -17 -132 -31 -248 -14 -115 -35 -268 -47 -340 l-22 -130
-73 -3 c-148 -6 -286 52 -402 168 -112 112 -153 210 -184 436 l-7 50 213 33
c196 30 481 67 536 70 20 1 22 -2 17 -36z m-815 -107 c-23 -62 -1 -217 46
-325 98 -221 325 -371 566 -375 49 -1 78 -5 78 -12 0 -6 -5 -37 -12 -69 l-11
-57 -63 6 c-35 4 -106 17 -158 31 -330 83 -557 359 -611 746 l-7 46 89 19 c48
11 89 20 91 19 1 -1 -2 -14 -8 -29z m-2137 -1250 c-10 -13 -110 -134 -223
-268 -113 -134 -265 -322 -339 -416 -73 -95 -135 -172 -137 -172 -3 0 -17 8
-31 18 -24 15 -56 17 -298 16 -309 0 -473 -19 -713 -79 -75 -19 -138 -35 -139
-35 -1 0 21 31 50 69 29 38 92 136 141 218 181 300 250 384 360 438 87 44 333
96 681 145 540 76 621 88 643 89 23 1 23 1 5 -23z m-372 -1349 c57 -29 122
-65 144 -81 l40 -28 -40 6 c-22 3 -109 9 -192 13 l-153 6 0 30 c0 21 11 41 39
68 21 22 43 39 48 39 6 0 57 -24 114 -53z m-66 -172 c61 -8 165 -15 231 -15
l122 0 86 -91 c47 -49 86 -95 86 -101 0 -7 -14 -8 -41 -4 -66 11 -369 36 -431
36 -53 0 -58 2 -87 37 -35 42 -96 153 -84 153 4 0 58 -7 118 -15z m1955 -311
c-68 -536 -137 -909 -190 -1022 -52 -113 -131 -180 -415 -351 -93 -57 -203
-128 -243 -158 -50 -37 -72 -49 -69 -36 70 238 103 453 117 755 8 188 4 285
-16 362 -4 18 19 40 153 143 87 67 277 220 423 342 146 121 266 217 268 213 1
-5 -11 -116 -28 -248z m-1730 32 c63 -8 173 -18 243 -22 l129 -7 28 -46 29
-46 -222 -7 -222 -6 -58 56 c-32 32 -63 65 -68 75 -12 21 -10 21 141 3z m317
-222 c160 -7 161 -7 173 -32 18 -39 0 -47 -108 -47 -81 0 -109 4 -172 28 -41
15 -86 37 -100 48 l-25 20 35 -5 c19 -3 108 -9 197 -12z"/>
<path d="M2847 4752 c-25 -27 -22 -78 5 -96 48 -34 108 -7 108 48 0 19 -8 40
-18 49 -25 22 -75 21 -95 -1z"/>
<path d="M2644 4611 c-100 -45 -447 -383 -632 -614 -56 -71 -102 -135 -102
-142 0 -8 9 -19 20 -25 17 -9 43 14 221 195 112 113 261 256 333 318 248 213
273 243 231 274 -23 16 -22 16 -71 -6z"/>
<path d="M3301 4125 c-179 -40 -405 -202 -520 -373 -92 -136 -141 -285 -141
-427 0 -72 12 -135 46 -252 5 -18 -1 -25 -37 -43 -99 -51 -186 -172 -210 -293
-31 -155 64 -282 226 -303 108 -13 256 38 325 112 34 37 39 47 30 64 -6 11
-17 20 -26 20 -8 0 -60 -24 -115 -52 -96 -51 -104 -53 -177 -53 -65 0 -82 4
-111 24 -40 29 -61 75 -61 136 0 77 31 131 148 257 l44 47 49 -73 c93 -140
225 -237 384 -284 106 -31 265 -33 375 -4 354 94 570 372 570 734 0 148 -20
244 -76 356 -46 94 -117 182 -146 182 -9 0 -30 25 -47 55 -37 65 -109 125
-188 156 -75 28 -247 36 -342 14z m259 -121 c72 -17 129 -46 189 -96 37 -30
40 -36 35 -69 -5 -32 0 -44 41 -100 27 -35 65 -100 86 -145 91 -191 93 -344 8
-519 -73 -151 -212 -270 -375 -321 -77 -24 -95 -26 -207 -22 -101 4 -134 10
-191 31 -322 125 -466 502 -318 832 78 174 297 353 496 405 87 23 151 24 236
4z"/>
<path d="M3288 3761 c-31 -10 -72 -28 -91 -39 -58 -36 -136 -128 -170 -199
-26 -57 -32 -83 -35 -159 -9 -190 72 -310 253 -375 84 -30 226 -31 309 0 154
55 245 156 276 304 15 72 6 145 -26 215 -37 84 -61 112 -94 112 -50 0 -56 -29
-23 -108 24 -59 28 -80 28 -172 0 -116 -15 -164 -75 -240 -43 -54 -137 -100
-207 -100 l-53 0 39 78 c51 101 155 337 175 396 20 58 20 80 1 96 -22 18 -47
4 -76 -42 -33 -53 -138 -313 -174 -430 -14 -49 -28 -88 -31 -88 -15 0 -73 36
-100 61 l-31 30 38 77 c21 42 67 136 103 208 35 72 76 165 91 207 15 43 33 77
39 77 6 0 44 -9 84 -20 92 -26 122 -26 122 -1 0 27 -36 69 -78 90 -85 43 -202
51 -294 22z m95 -103 c-4 -7 -35 -53 -67 -102 -64 -97 -124 -223 -153 -322
-10 -35 -20 -64 -24 -64 -11 0 -38 70 -49 129 -31 170 65 322 227 360 57 13
75 13 66 -1z"/>
<path d="M4652 2738 c-7 -7 -12 -27 -12 -45 0 -24 7 -37 26 -50 24 -15 29 -15
53 -2 29 16 41 70 20 95 -14 17 -70 19 -87 2z"/>
<path d="M1560 2523 c0 -5 37 -20 83 -33 123 -35 245 -101 363 -196 58 -46
117 -87 130 -90 36 -9 54 2 54 33 0 21 -15 42 -61 85 -72 69 -198 134 -334
173 -96 28 -235 44 -235 28z"/>
<path d="M4430 2444 c-25 -14 -83 -62 -130 -108 -47 -45 -134 -127 -193 -181
-118 -108 -227 -235 -227 -266 0 -25 29 -25 79 1 49 25 142 99 361 289 213
185 251 238 198 275 -29 21 -35 20 -88 -10z"/>
<path d="M2333 2053 c-7 -17 49 -130 94 -191 51 -68 103 -78 103 -18 0 38 -17
63 -101 155 -69 74 -85 83 -96 54z"/>
<path d="M700 1983 c-14 -2 -50 -16 -80 -31 -48 -24 -55 -31 -55 -57 0 -29 2
-30 45 -29 141 4 282 21 298 37 21 22 9 45 -39 69 -32 17 -103 21 -169 11z"/>
<path d="M973 1760 c-76 -14 -208 -65 -283 -109 -167 -99 -338 -291 -435 -486
-94 -189 -182 -490 -232 -789 -32 -196 -34 -189 70 -199 163 -17 450 78 655
215 45 31 82 54 82 52 0 -2 -22 -47 -50 -99 -27 -52 -50 -101 -50 -109 0 -27
41 -66 68 -66 110 1 326 92 468 198 155 115 299 292 379 466 120 258 127 570
16 670 -17 16 -27 18 -49 10 -14 -5 -31 -19 -37 -30 l-10 -21 -17 21 c-12 16
-13 27 -6 40 37 66 -95 175 -267 220 -74 20 -233 28 -302 16z m245 -135 c59
-14 155 -57 195 -87 16 -12 8 -13 -55 -10 -198 10 -421 -107 -497 -260 -25
-49 -31 -74 -31 -126 0 -120 35 -184 131 -237 49 -27 63 -30 149 -30 87 0 101
3 158 31 55 27 63 29 77 15 33 -33 111 34 189 164 30 48 36 54 36 34 0 -51
-41 -186 -80 -267 -81 -163 -215 -311 -390 -431 -70 -48 -199 -121 -213 -121
-2 0 9 26 24 58 16 31 36 91 45 132 8 41 27 98 42 126 27 54 25 84 -6 84 -31
0 -82 -30 -119 -71 -79 -87 -263 -208 -410 -269 -78 -33 -229 -75 -307 -86
l-49 -7 7 39 c18 96 111 450 147 559 69 207 170 399 272 515 98 113 257 211
392 244 79 19 214 19 293 1z m318 -271 c-33 -95 -50 -132 -90 -201 -31 -53
-46 -66 -132 -118 -152 -92 -237 -104 -327 -44 -144 95 -118 299 48 384 l59
30 220 3 c122 2 225 7 230 12 18 18 16 3 -8 -66z"/>
<path d="M1830 1085 c-8 -10 -14 -64 -18 -153 -4 -130 -3 -138 17 -156 17 -16
26 -17 45 -8 30 13 36 45 36 181 0 80 -4 112 -16 129 -18 26 -46 29 -64 7z"/>
</g>
</svg>
